HIERARCHY
ROOT pelvis
{
  OFFSET 0 100 0
  CHANNELS 6 Xposition Yposition Zposition Zrotation Xrotation Yrotation
  JOINT pelvis_right_femur
  {
    OFFSET -10.78128 -3.44521 -0.5502486
    CHANNELS 3 Zrotation Xrotation Yrotation
    JOINT right_femur_tibia
    {
      OFFSET -0.8047443 -44.0398 -0.1307829
      CHANNELS 3 Zrotation Xrotation Yrotation
      JOINT right_tibia_foot
      {
        OFFSET 3.006224 -47.83518 -5
        CHANNELS 3 Zrotation Xrotation Yrotation
        End Site
        {
          OFFSET 0 -5 15
        }
      }
    }
  }
  JOINT pelvis_left_femur
  {
    OFFSET 10.78128 -3.44521 -0.5502486
    CHANNELS 3 Zrotation Xrotation Yrotation
    JOINT left_femur_tibia
    {
      OFFSET 0.8047443 -44.0398 -0.1307829
      CHANNELS 3 Zrotation Xrotation Yrotation
      JOINT left_tibia_foot
      {
        OFFSET -4.370144 -48.10324 -4.275266
        CHANNELS 3 Zrotation Xrotation Yrotation
        End Site
        {
          OFFSET 0 -5 15
        }
      }
    }
  }
  JOINT pelvis_spine1
  {
    OFFSET 0 6.468898 -3.129235
    CHANNELS 3 Zrotation Xrotation Yrotation
    JOINT spine1
    {
      OFFSET 0 23.15396 4.99043
      CHANNELS 3 Zrotation Xrotation Yrotation
      JOINT spine2
      {
        OFFSET 0 20.79997 -5.064912
        CHANNELS 3 Zrotation Xrotation Yrotation
        JOINT neck
        {
          OFFSET 0 14.38658 9.616178
          CHANNELS 3 Zrotation Xrotation Yrotation
          End Site
          {
            OFFSET 0 20 0
          }
        }
      }
      JOINT right_manubrium
      {
        OFFSET -5.722621 16.35077 3.967754
        CHANNELS 3 Zrotation Xrotation Yrotation
        JOINT right_clavicle
        {
          OFFSET -13.16364 1.694482 -4.693211
          CHANNELS 3 Zrotation Xrotation Yrotation
          JOINT right_humerus
          {
            OFFSET -28.5034 -0.3100689 -2.792744
            CHANNELS 3 Zrotation Xrotation Yrotation
            JOINT right_radius
            {
              OFFSET -25.15693 0.02248979 -1.271978
              CHANNELS 3 Zrotation Xrotation Yrotation
              End Site
              {
                OFFSET -15 0 0
              }
            }
          }
        }
      }
      JOINT left_manubrium
      {
        OFFSET 5.722621 16.35077 3.967754
        CHANNELS 3 Zrotation Xrotation Yrotation
        JOINT left_clavicle
        {
          OFFSET 13.16364 1.694482 -4.693211
          CHANNELS 3 Zrotation Xrotation Yrotation
          JOINT left_humerus
          {
            OFFSET 29.39168 -1.063119 -2.237045
            CHANNELS 3 Zrotation Xrotation Yrotation
            JOINT left_radius
            {
              OFFSET 24.59957 -0.9528479 0.9047498
              CHANNELS 3 Zrotation Xrotation Yrotation
              End Site
              {
                OFFSET 15 -0 -0
              }
            }
          }
        }
      }
    }
  }
}
MOTION
Frames: 11
Frame Time: 0.0416666666667
-147.4684 114.3913 40.56946 12.03515 -9.932537 45.16959 3.859849 -2.342496 -11.82853 -0 7.500859 -0 -13.70159 12.82432 2.849325 -2.46812 3.241123 -3.042438 -0 29.14578 -0 -3.705076 -12.08044 11.22974 1.86674 -3.466965 5.252685 -2.899409 18.40035 -4.32482 2.365603 23.12231 2.623553 3.567082 -12.67699 2.532961 -5.391413 -25.53438 12.30347 97.06433 5.723539 -17.84191 -0 0 16.05246 -33.87051 13.13472 14.08198 6.14695 -28.59936 -13.87318 -87.66903 12.00491 20.05381 0 0 -26.99297 4.592563 20.47227 5.272637
-142.1475 114.3695 45.2588 11.90638 -10.08722 44.42878 3.859849 -2.342496 -11.82853 -0 7.500859 -0 -13.70159 12.82432 2.849325 -2.46812 3.241123 -3.042437 -0 29.14578 -0 -3.705076 -12.08044 11.22974 1.86674 -3.466965 5.252685 -2.899409 18.40035 -4.32482 2.365603 23.12231 2.623553 3.567082 -12.67699 2.532961 -5.391413 -25.53438 12.30347 97.06433 5.723539 -17.84191 -0 0 16.05246 -33.87051 13.13472 14.08198 6.14695 -28.59936 -13.87318 -87.66903 12.00491 20.05381 0 0 -26.99297 4.592564 20.47227 5.272637
-136.8881 114.3477 50.01699 11.77553 -10.24025 43.68725 3.859849 -2.342496 -11.82853 -0 7.500859 -0 -13.70159 12.82432 2.849325 -2.46812 3.241123 -3.042437 -0 29.14578 -0 -3.705075 -12.08044 11.22974 1.86674 -3.466965 5.252685 -2.899409 18.40035 -4.32482 2.365603 23.12231 2.623553 3.567082 -12.67699 2.532961 -5.391413 -25.53438 12.30347 97.06433 5.723539 -17.84191 -0 0 16.05246 -33.87051 13.13472 14.08198 6.14695 -28.59936 -13.87318 -87.66903 12.00491 20.05381 0 0 -26.99297 4.592564 20.47227 5.272637
-131.6911 114.3259 54.84324 11.64261 -10.39159 42.94502 3.859849 -2.342496 -11.82853 -0 7.500858 -0 -13.70159 12.82432 2.849324 -2.46812 3.241123 -3.042437 -0 29.14578 -0 -3.705075 -12.08044 11.22974 1.86674 -3.466965 5.252685 -2.899409 18.40035 -4.32482 2.365603 23.12231 2.623553 3.567082 -12.67699 2.532961 -5.391413 -25.53438 12.30347 97.06433 5.723538 -17.84191 -0 0 16.05246 -33.87051 13.13472 14.08198 6.14695 -28.59936 -13.87318 -87.66903 12.00491 20.05381 0 0 -26.99297 4.592564 20.47227 5.272637
-126.5573 114.3041 59.73672 11.50765 -10.54123 42.20207 3.859849 -2.342496 -11.82853 -0 7.500858 -0 -13.70159 12.82432 2.849324 -2.46812 3.241124 -3.042437 -0 29.14578 -0 -3.705075 -12.08044 11.22974 1.86674 -3.466965 5.252685 -2.899409 18.40035 -4.32482 2.365603 23.12231 2.623553 3.567082 -12.67699 2.532961 -5.391413 -25.53438 12.30347 97.06433 5.723538 -17.84191 -0 0 16.05246 -33.87051 13.13472 14.08198 6.14695 -28.59936 -13.87318 -87.66903 12.00491 20.05381 0 0 -26.99297 4.592564 20.47227 5.272637
-121.4876 114.2822 64.69661 11.37065 -10.68914 41.4584 3.859849 -2.342496 -11.82853 -0 7.500858 -0 -13.70159 12.82432 2.849324 -2.46812 3.241124 -3.042437 -0 29.14578 -0 -3.705075 -12.08044 11.22974 1.86674 -3.466965 5.252685 -2.899409 18.40035 -4.32482 2.365603 23.12231 2.623553 3.567082 -12.67699 2.532961 -5.391413 -25.53438 12.30347 97.06433 5.723538 -17.84191 -0 0 16.05246 -33.87051 13.13472 14.08198 6.14695 -28.59936 -13.87318 -87.66903 12.00491 20.05381 0 0 -26.99297 4.592564 20.47227 5.272637
-116.4829 114.2604 69.72206 11.23165 -10.83528 40.71401 3.859849 -2.342496 -11.82853 -0 7.500858 -0 -13.70159 12.82432 2.849324 -2.46812 3.241124 -3.042437 -0 29.14578 -0 -3.705075 -12.08044 11.22974 1.86674 -3.466965 5.252685 -2.899409 18.40035 -4.32482 2.365603 23.12231 2.623553 3.567082 -12.67699 2.532961 -5.391413 -25.53438 12.30347 97.06433 5.723538 -17.84191 -0 0 16.05246 -33.87051 13.13472 14.08198 6.146949 -28.59936 -13.87318 -87.66903 12.00491 20.05381 0 0 -26.99297 4.592564 20.47227 5.272637
-111.5441 114.2386 74.81222 11.09065 -10.97964 39.96889 3.859849 -2.342496 -11.82853 -0 7.500858 -0 -13.70159 12.82432 2.849324 -2.46812 3.241123 -3.042437 -0 29.14578 -0 -3.705075 -12.08044 11.22974 1.86674 -3.466965 5.252685 -2.899409 18.40035 -4.32482 2.365603 23.12231 2.623553 3.567082 -12.67699 2.532961 -5.391413 -25.53438 12.30347 97.06433 5.723538 -17.84191 -0 0 16.05246 -33.87051 13.13472 14.08198 6.146949 -28.59936 -13.87318 -87.66903 12.00491 20.05381 0 0 -26.99297 4.592564 20.47227 5.272637
-106.6719 114.2168 79.96623 10.94769 -11.12219 39.22306 3.859849 -2.342496 -11.82853 -0 7.500858 -0 -13.70159 12.82432 2.849324 -2.46812 3.241123 -3.042437 -0 29.14578 -0 -3.705075 -12.08044 11.22974 1.86674 -3.466965 5.252685 -2.899409 18.40035 -4.32482 2.365603 23.12231 2.623553 3.567082 -12.67699 2.532961 -5.391413 -25.53438 12.30347 97.06433 5.723538 -17.84191 -0 0 16.05246 -33.87051 13.13472 14.08198 6.146949 -28.59936 -13.87318 -87.66903 12.00491 20.05381 0 0 -26.99297 4.592564 20.47227 5.272637
-101.8673 114.195 85.18322 10.80277 -11.26289 38.4765 3.859849 -2.342496 -11.82853 -0 7.500858 -0 -13.70159 12.82432 2.849324 -2.46812 3.241123 -3.042437 -0 29.14578 -0 -3.705075 -12.08044 11.22974 1.86674 -3.466965 5.252685 -2.899409 18.40035 -4.32482 2.365603 23.12231 2.623553 3.567082 -12.67699 2.532961 -5.391413 -25.53438 12.30347 97.06433 5.723538 -17.84191 -0 0 16.05246 -33.87051 13.13472 14.08198 6.146949 -28.59936 -13.87318 -87.66903 12.00491 20.05381 0 0 -26.99297 4.592564 20.47227 5.272637
-97.1309 114.1732 90.4623 10.65593 -11.40173 37.72921 3.859849 -2.342496 -11.82853 -0 7.500858 -0 -13.70159 12.82432 2.849324 -2.46812 3.241123 -3.042437 -0 29.14578 -0 -3.705075 -12.08044 11.22974 1.86674 -3.466965 5.252685 -2.899409 18.40035 -4.32482 2.365603 23.12231 2.623553 3.567082 -12.67699 2.532961 -5.391413 -25.53438 12.30347 97.06433 5.723538 -17.84191 -0 0 16.05246 -33.87051 13.13472 14.08198 6.146949 -28.59936 -13.87318 -87.66903 12.00491 20.05381 0 0 -26.99297 4.592564 20.47227 5.272637
